<?xml version="1.0" encoding="UTF-8" standalone="no"?>
<!-- Created with Inkscape (http://www.inkscape.org/) -->

<svg
   width="16.933332mm"
   height="16.933332mm"
   viewBox="0 0 16.933332 16.933332"
   version="1.1"
   id="svg5"
   xml:space="preserve"
   inkscape:version="1.2.1 (9c6d41e410, 2022-07-14)"
   sodipodi:docname="avatar.svg"
   xmlns:inkscape="http://www.inkscape.org/namespaces/inkscape"
   xmlns:sodipodi="http://sodipodi.sourceforge.net/DTD/sodipodi-0.dtd"
   xmlns="http://www.w3.org/2000/svg"
   xmlns:svg="http://www.w3.org/2000/svg"><sodipodi:namedview
     id="namedview7"
     pagecolor="#ffffff"
     bordercolor="#000000"
     borderopacity="0.25"
     inkscape:showpageshadow="2"
     inkscape:pageopacity="0.0"
     inkscape:pagecheckerboard="0"
     inkscape:deskcolor="#d1d1d1"
     inkscape:document-units="mm"
     showgrid="false"
     inkscape:zoom="11.659484"
     inkscape:cx="57.592602"
     inkscape:cy="33.320515"
     inkscape:window-width="1920"
     inkscape:window-height="996"
     inkscape:window-x="0"
     inkscape:window-y="28"
     inkscape:window-maximized="1"
     inkscape:current-layer="layer1" /><defs
     id="defs2" /><g
     inkscape:label="Ebene 1"
     inkscape:groupmode="layer"
     id="layer1"
     transform="translate(30.986823,43.95983)"><circle
       style="fill:#f2f2f2;stroke-width:0.0224366;stroke-miterlimit:5.4;paint-order:stroke markers fill"
       id="path233"
       cx="-22.520157"
       cy="-35.493164"
       r="8.4666662" /><path
       style="fill:#000000;stroke-width:0.0170542"
       d="m -26.026006,-28.135819 c -0.02121,-0.02423 -0.02841,-0.09652 -0.03613,-0.362816 -0.0108,-0.372577 -0.02378,-0.440101 -0.09239,-0.480732 -0.09701,-0.05745 -0.128511,-0.10943 -0.155619,-0.256799 -0.03626,-0.197116 -0.03344,-0.356412 0.0088,-0.498898 0.215213,-0.72547 0.276304,-0.975795 0.25473,-1.043763 -0.01441,-0.04541 -0.21114,-0.172331 -0.33911,-0.218782 -0.06148,-0.02231 -0.152667,-0.04564 -0.202641,-0.05182 -0.04997,-0.0062 -0.107722,-0.02179 -0.128327,-0.03467 -0.02061,-0.01288 -0.07305,-0.09231 -0.116537,-0.176516 -0.0802,-0.155284 -0.198013,-0.29861 -0.235009,-0.285902 -0.01409,0.0048 -0.01839,0.04754 -0.01408,0.139721 0.0044,0.09456 7.45e-4,0.129375 -0.01279,0.12101 -0.01045,-0.0065 -0.019,-0.03788 -0.019,-0.06983 0,-0.121488 -0.04772,-0.217811 -0.216038,-0.436094 -0.03909,-0.0507 -0.102456,-0.150507 -0.140806,-0.221801 -0.03835,-0.07129 -0.08572,-0.144099 -0.105268,-0.161788 -0.03484,-0.03153 -0.03601,-0.03151 -0.05958,7.16e-4 -0.01322,0.01808 -0.02408,0.06403 -0.02414,0.102099 -2.35e-4,0.171092 -0.06746,0.266008 -0.138255,0.195211 -0.03329,-0.03329 -0.0358,-0.04872 -0.02626,-0.161556 0.01054,-0.12468 -0.01498,-0.353731 -0.05874,-0.527222 -0.02628,-0.104199 -0.163641,-0.385686 -0.263869,-0.540747 -0.110946,-0.171639 -0.121724,-0.19863 -0.134786,-0.337544 -0.0066,-0.07035 -0.03031,-0.223836 -0.05266,-0.341083 -0.117876,-0.618479 -0.145203,-0.930303 -0.145721,-1.662791 -2.28e-4,-0.323991 0.0069,-0.59155 0.01682,-0.630575 0.01258,-0.04952 0.01185,-0.0711 -0.0027,-0.08009 -0.01378,-0.0085 -0.01087,-0.01577 0.0095,-0.02357 0.01615,-0.0062 0.02937,-0.01894 0.02937,-0.02832 0,-0.0094 -0.01151,-0.01264 -0.02558,-0.0072 -0.01407,0.0054 -0.02558,0.0081 -0.02557,0.0061 8e-6,-0.0021 0.01307,-0.06129 0.02902,-0.131635 0.01595,-0.07035 0.02902,-0.154766 0.02904,-0.187596 4.5e-5,-0.07352 -0.05172,-0.236731 -0.08794,-0.277235 -0.01473,-0.01647 -0.02363,-0.03182 -0.01978,-0.03411 0.0039,-0.0023 0.02171,-0.01226 0.03968,-0.02217 0.01797,-0.0099 0.04516,-0.05631 0.06042,-0.103129 0.0438,-0.134361 0.09279,-0.199413 0.323935,-0.430147 0.202903,-0.202543 0.268161,-0.28415 0.406038,-0.507758 0.0608,-0.09861 0.734905,-0.784864 0.899401,-0.915616 0.05628,-0.04473 0.156046,-0.127821 0.221705,-0.184638 0.14935,-0.129238 0.335596,-0.254115 0.377485,-0.253102 0.0175,3.91e-4 0.05292,0.01002 0.07871,0.02132 l 0.04689,0.02055 -0.07247,0.09167 c -0.03986,0.05042 -0.184353,0.203909 -0.321097,0.341084 -0.285124,0.286023 -0.517071,0.5575 -0.56204,0.657826 -0.01703,0.038 -0.04296,0.121723 -0.0576,0.18604 -0.01936,0.08501 -0.06355,0.180628 -0.161849,0.350214 -0.149548,0.257986 -0.207122,0.414126 -0.249072,0.675477 -0.03358,0.209184 -0.09337,0.339874 -0.219006,0.47871 -0.146013,0.16135 -0.179123,0.305803 -0.222534,0.970896 -0.03045,0.466538 -0.01097,0.933464 0.05139,1.231802 0.02105,0.100675 0.03647,0.13337 0.08411,0.178313 0.0559,0.05273 0.0579,0.05881 0.04774,0.145291 -0.0095,0.0804 -0.0054,0.09779 0.03721,0.159258 0.04743,0.06844 0.04766,0.07006 0.02844,0.200422 -0.04531,0.307244 -0.04429,0.409638 0.0056,0.566305 0.0254,0.07973 0.06551,0.183205 0.08913,0.229947 0.05859,0.115939 0.313058,0.437402 0.341529,0.431451 0.01266,-0.0026 0.04405,-0.05469 0.06975,-0.115664 0.0257,-0.06097 0.07878,-0.164758 0.117948,-0.230645 0.03917,-0.06589 0.07604,-0.14392 0.08194,-0.173409 0.0093,-0.04668 0.0044,-0.057 -0.03803,-0.07979 -0.0727,-0.03903 -0.193713,-0.158737 -0.193713,-0.191617 0,-0.01583 -0.02562,-0.06026 -0.05693,-0.09875 -0.07083,-0.08705 -0.181826,-0.245178 -0.181826,-0.259026 0,-0.0057 -0.01374,-0.0307 -0.03053,-0.0556 -0.03426,-0.0508 -0.09042,-0.189918 -0.128419,-0.318136 -0.0139,-0.0469 -0.04138,-0.129209 -0.06107,-0.182908 -0.02954,-0.08058 -0.0358,-0.13652 -0.0358,-0.320191 v -0.222555 l 0.04556,-0.01732 c 0.06135,-0.02332 0.09773,-0.01403 0.105234,0.02689 0.0034,0.01865 0.016,0.04542 0.02795,0.05949 0.01195,0.01407 0.02703,0.06395 0.03351,0.110852 0.0065,0.0469 0.02677,0.114618 0.0451,0.150487 0.02734,0.05349 0.03283,0.09641 0.03054,0.238761 -0.0025,0.153285 0.0023,0.184932 0.04107,0.271061 0.08583,0.190803 0.292191,0.473801 0.345498,0.473801 0.01234,0 0.03883,-0.02302 0.05887,-0.05116 0.05077,-0.07129 0.109721,-0.06712 0.343894,0.02434 0.106322,0.04153 0.231685,0.08484 0.278584,0.09626 0.0469,0.01142 0.09486,0.02826 0.106589,0.03744 0.02472,0.01934 0.07248,-0.01246 0.07248,-0.04827 0,-0.06643 0.07799,-0.04083 0.11016,0.03616 0.02052,0.04912 0.03858,0.06115 0.137754,0.09178 0.06277,0.01939 0.184244,0.05031 0.269931,0.06872 0.08569,0.01841 0.209516,0.04977 0.275175,0.06968 0.137051,0.04158 0.187916,0.05311 0.699222,0.158608 0.568163,0.117225 0.66591,0.131273 0.880756,0.126586 0.183236,-0.004 0.198154,-0.0017 0.277205,0.04242 0.05083,0.02838 0.109372,0.04665 0.149486,0.04665 0.03627,0 0.259053,0.01979 0.495083,0.04398 0.347385,0.0356 0.437499,0.04006 0.472992,0.02337 0.02412,-0.01134 0.07071,-0.02701 0.103537,-0.03482 0.05065,-0.01206 0.06393,-0.0087 0.08768,0.02236 0.02516,0.03288 0.05275,0.03818 0.272867,0.05241 0.29543,0.01911 0.710611,-0.0058 0.90999,-0.05455 0.09275,-0.02269 0.253826,-0.03941 0.503098,-0.05224 0.201666,-0.01038 0.424223,-0.02581 0.494572,-0.0343 0.07035,-0.0085 0.21808,-0.02479 0.328293,-0.03623 0.110213,-0.01144 0.200386,-0.02639 0.200386,-0.03323 0,-0.0257 0.100622,-0.0389 0.315503,-0.04138 0.206015,-0.0024 0.234377,-0.0069 0.400774,-0.06356 0.09849,-0.03355 0.236627,-0.07466 0.306975,-0.09136 0.07035,-0.0167 0.143255,-0.03964 0.162015,-0.05098 0.01876,-0.01134 0.05341,-0.02506 0.077,-0.03049 0.06087,-0.01402 0.127972,-0.091 0.296068,-0.339686 0.133579,-0.197622 0.147073,-0.225021 0.146987,-0.298448 -1.31e-4,-0.128281 -0.03005,-0.204022 -0.119563,-0.302864 -0.08717,-0.09626 -0.136155,-0.175666 -0.136155,-0.220719 0,-0.01463 -0.01535,-0.03974 -0.03411,-0.0558 -0.04503,-0.03856 -0.04324,-0.08396 0.0043,-0.108288 0.0211,-0.01081 0.07052,-0.05059 0.109819,-0.08841 l 0.07145,-0.06876 0.106956,0.01118 c 0.135665,0.01418 0.214406,0.06489 0.299598,0.192922 0.03548,0.05332 0.07313,0.09974 0.08367,0.103153 0.03589,0.01163 0.124298,-0.0821 0.229635,-0.243466 0.08941,-0.136975 0.111935,-0.161039 0.150716,-0.161039 0.06263,0 0.08652,0.02935 0.08652,0.106275 0,0.268563 -0.4249,0.946291 -0.697117,1.111924 -0.09687,0.05894 -0.141394,0.114583 -0.162508,0.203091 l -0.01155,0.04842 0.132877,-0.01212 c 0.12256,-0.01118 0.15829,-0.02277 0.303418,-0.09842 0.07912,-0.04124 0.312577,-0.09715 0.405672,-0.09715 0.04606,0 0.107928,0.01107 0.137485,0.02459 0.02956,0.01353 0.07293,0.02696 0.09638,0.02985 0.02345,0.0029 0.04264,0.01522 0.04264,0.0274 0,0.04617 -0.136775,0.189595 -0.207515,0.217609 l -0.07108,0.02815 0.0029,0.449147 c 0.0022,0.341032 -0.0023,0.454343 -0.01858,0.47074 -0.06221,0.06266 -0.08336,-0.06921 -0.123157,-0.767832 -1.95e-4,-0.0035 -0.02384,-0.0017 -0.05253,0.004 -0.03023,0.006 -0.10186,0.05534 -0.170376,0.117248 l -0.118213,0.106815 -0.0023,0.162015 c -0.0057,0.404703 -0.0463,0.520994 -0.10139,0.290426 -0.0082,-0.03422 -0.0065,-0.113341 0.0039,-0.187596 0.02134,-0.15193 0.0027,-0.243865 -0.06605,-0.325555 -0.04221,-0.05017 -0.05054,-0.05303 -0.125494,-0.04308 -0.120035,0.01592 -0.340637,0.0767 -0.396513,0.109248 -0.02847,0.01658 -0.07015,0.06997 -0.09892,0.126716 -0.04865,0.09595 -0.07065,0.115344 -0.09187,0.08101 -0.01747,-0.02826 -0.08437,-0.01922 -0.114018,0.01541 -0.01529,0.01786 -0.06135,0.05213 -0.102363,0.07617 -0.07647,0.04481 -0.204919,0.181359 -0.268105,0.285006 -0.042,0.06889 -0.04538,0.15437 -0.01009,0.254419 0.03885,0.110097 0.03331,0.150647 -0.02514,0.184125 -0.02953,0.01691 -0.05501,0.04856 -0.061,0.07576 -0.0057,0.02569 -0.01737,0.05108 -0.02603,0.05643 -0.0087,0.0054 -0.01574,0.063 -0.01574,0.128102 0,0.114895 -0.0013,0.118372 -0.04264,0.118372 -0.04282,0 -0.0582,-0.01278 -0.138572,-0.115115 -0.02576,-0.0328 -0.05898,-0.05543 -0.08137,-0.05543 -0.02119,0 -0.08618,0.04129 -0.147709,0.09386 -0.06043,0.05162 -0.201959,0.168372 -0.314517,0.259448 -0.112557,0.09108 -0.279489,0.23878 -0.370959,0.328235 -0.145425,0.142221 -0.166305,0.169868 -0.166278,0.220186 3.4e-5,0.08012 0.113226,0.326226 0.171821,0.373606 0.02646,0.0214 0.08062,0.09814 0.120346,0.170541 0.03973,0.0724 0.112746,0.194762 0.162257,0.27191 0.14518,0.226215 0.150814,0.240108 0.113898,0.280899 -0.02274,0.02513 -0.03129,0.06247 -0.03185,0.139146 -3.91e-4,0.05764 -0.01001,0.121562 -0.02132,0.14205 -0.01131,0.02049 -0.02055,0.09437 -0.02055,0.164189 0,0.09502 -0.0068,0.132578 -0.02701,0.149357 -0.03902,0.03238 -0.07983,6.9e-4 -0.102321,-0.07947 -0.0102,-0.03634 -0.04078,-0.08865 -0.06797,-0.116229 -0.06367,-0.0646 -0.08633,-0.109483 -0.101273,-0.200603 -0.0067,-0.04063 -0.02211,-0.08538 -0.03433,-0.09945 -0.01221,-0.01407 -0.04084,-0.07163 -0.06361,-0.127907 -0.0413,-0.10206 -0.04158,-0.102314 -0.108106,-0.09838 -0.0472,0.0028 -0.07794,0.01679 -0.105107,0.04789 -0.02112,0.02417 -0.04527,0.0397 -0.05366,0.03451 -0.02063,-0.01275 -0.04926,-0.187647 -0.063,-0.384791 -0.0082,-0.117796 -0.01943,-0.171324 -0.04112,-0.196123 -0.01641,-0.01876 -0.05007,-0.06672 -0.07479,-0.106589 -0.0525,-0.08465 -0.07579,-0.08839 -0.202132,-0.03252 -0.0497,0.02198 -0.130326,0.05324 -0.179174,0.06946 -0.06242,0.02073 -0.10564,0.04976 -0.145433,0.09766 l -0.05662,0.06816 -0.05289,-0.03035 c -0.05066,-0.02907 -0.0589,-0.02908 -0.195312,-1.95e-4 -0.07833,0.01659 -0.238352,0.04898 -0.3556,0.07197 -0.259096,0.05081 -0.252795,0.04857 -0.271406,0.09646 -0.01715,0.04413 -0.09312,0.118555 -0.151948,0.148854 -0.03496,0.01801 -0.04077,0.01608 -0.04923,-0.01628 -0.01405,-0.05372 -0.0696,-0.06792 -0.336383,-0.08599 -0.606569,-0.0411 -0.761797,-0.05571 -0.904979,-0.08523 -0.08442,-0.0174 -0.194803,-0.037 -0.2453,-0.04354 l -0.09181,-0.01191 0.01229,0.100561 c 0.0068,0.05531 0.03081,0.14721 0.05344,0.204224 0.02263,0.05701 0.04115,0.115302 0.04115,0.129527 0,0.02854 -0.05226,0.08231 -0.08,0.08231 -0.0097,0 -0.0466,0.02302 -0.08201,0.05116 -0.07769,0.06174 -0.134776,0.0655 -0.170335,0.01124 -0.03173,-0.04843 -0.138729,-0.421376 -0.153475,-0.534946 -0.02001,-0.154103 -0.02103,-0.155925 -0.09845,-0.175759 -0.15864,-0.04064 -0.382688,-0.123955 -0.677733,-0.252026 -0.242938,-0.105454 -0.33168,-0.154059 -0.579842,-0.317592 -0.107868,-0.07108 -0.204777,-0.129266 -0.215353,-0.129298 -0.03461,-1.3e-4 -0.0529,0.03944 -0.131469,0.28417 -0.07583,0.236193 -0.130696,0.461338 -0.130696,0.536307 0,0.02061 0.01919,0.06264 0.04264,0.09338 0.02345,0.03074 0.04264,0.06639 0.04264,0.07921 0,0.01282 0.0062,0.0306 0.01376,0.03951 0.0076,0.0089 0.03121,0.06736 0.05253,0.129886 0.04429,0.129882 0.03811,0.15562 -0.05942,0.247653 -0.0623,0.05878 -0.06468,0.09727 -0.01384,0.223062 0.0201,0.04973 0.01875,0.06212 -0.01258,0.115213 -0.03374,0.05718 -0.03431,0.06862 -0.01488,0.293892 0.0225,0.260869 0.01841,0.467284 -0.0095,0.476476 -0.01007,0.0033 -0.03022,-0.0076 -0.04479,-0.02422 z m 3.538061,-1.82781 c 0.05404,-0.01721 0.07235,-0.03669 0.11628,-0.123717 0.05856,-0.116011 0.05757,-0.07751 0.01816,-0.705078 -0.0106,-0.168836 -0.02401,-0.511255 -0.02979,-0.760932 -0.0058,-0.249676 -0.01653,-0.463686 -0.02388,-0.475578 -0.01687,-0.0273 -0.23739,0.0017 -0.422336,0.05548 l -0.123939,0.03606 -0.134555,-0.03888 c -0.119556,-0.03455 -0.141492,-0.03637 -0.196802,-0.01637 -0.05451,0.01971 -0.0722,0.01861 -0.14228,-0.0089 -0.04402,-0.01727 -0.102894,-0.0324 -0.130836,-0.03362 -0.0699,-0.0031 -0.07258,0.01614 -0.07566,0.543503 -0.003,0.510352 -0.02292,0.787693 -0.05922,0.823998 -0.02136,0.02136 -0.0233,-0.04071 -0.01493,-0.477895 0.0086,-0.451139 0.0024,-0.614025 -0.02258,-0.589056 -0.0046,0.0046 -0.01572,0.111026 -0.02472,0.236508 -0.02961,0.412812 -0.09498,1.038894 -0.121987,1.168277 -0.01705,0.08167 -0.01502,0.09336 0.03086,0.177644 0.02701,0.04962 0.07206,0.104184 0.100112,0.121244 0.04616,0.02807 0.208883,0.07051 0.341257,0.08901 0.112729,0.01575 0.854369,-0.0018 0.916848,-0.02171 z m 0.843445,-0.146125 c 0.07694,-0.0243 0.161296,-0.06214 0.187466,-0.08408 0.0925,-0.07754 0.33285,-0.184221 0.485508,-0.215498 0.08188,-0.01678 0.156182,-0.03502 0.165115,-0.04054 0.03669,-0.02268 0.03953,-0.172565 0.0052,-0.275612 -0.01851,-0.05558 -0.04258,-0.173959 -0.0535,-0.263068 -0.01092,-0.08911 -0.03089,-0.246433 -0.04438,-0.349611 -0.01349,-0.103177 -0.03239,-0.254848 -0.04199,-0.337045 -0.01891,-0.161762 -0.0397,-0.23427 -0.06719,-0.23427 -0.0096,0 -0.01748,-0.02373 -0.01748,-0.05274 0,-0.029 -0.01539,-0.0723 -0.0342,-0.09621 -0.02643,-0.0336 -0.02975,-0.04883 -0.01462,-0.06705 0.01076,-0.01297 0.01617,-0.02699 0.012,-0.03115 -0.01503,-0.01503 -0.196934,-0.01182 -0.363954,0.0064 -0.0938,0.01025 -0.267011,0.02611 -0.384918,0.03524 -0.117907,0.0091 -0.226249,0.02117 -0.24076,0.02673 -0.01692,0.0065 -0.0302,0.04191 -0.03702,0.0987 -0.01377,0.114638 -0.01091,1.4869 0.0036,1.705982 0.01001,0.151563 0.01521,0.171143 0.05372,0.202399 0.03597,0.02919 0.05866,0.03311 0.145091,0.02509 0.05635,-0.0052 0.165402,-0.0294 0.242339,-0.0537 z m -2.52904,-0.09018 c 0.0138,-0.04347 0.08054,-0.497918 0.129589,-0.882414 0.01469,-0.115171 0.04572,-0.44496 0.05295,-0.562789 0.0012,-0.01876 0.0094,-0.06414 0.01843,-0.100848 0.01377,-0.05625 0.01008,-0.07969 -0.02345,-0.149167 -0.03264,-0.06763 -0.04632,-0.08094 -0.0762,-0.07412 -0.02049,0.0047 -0.04565,-0.0028 -0.05751,-0.01711 -0.0116,-0.01398 -0.03468,-0.02542 -0.05129,-0.02542 -0.01661,0 -0.03445,-0.01108 -0.03964,-0.02462 -0.01122,-0.02924 -0.186285,-0.08578 -0.318232,-0.102775 -0.05159,-0.0066 -0.143682,-0.02586 -0.20465,-0.0427 -0.154018,-0.04254 -0.427952,-0.09121 -0.468991,-0.08332 -0.02657,0.0051 -0.04729,0.04636 -0.0938,0.18678 -0.03283,0.09913 -0.08897,0.227633 -0.124768,0.285573 -0.04584,0.07421 -0.07736,0.156981 -0.106637,0.280021 -0.02286,0.09607 -0.0537,0.212076 -0.06854,0.257789 -0.04276,0.131701 -0.04907,0.248599 -0.01751,0.324129 0.01515,0.03625 0.02754,0.08061 0.02754,0.09857 0,0.02243 0.04937,0.0647 0.157751,0.135048 0.271525,0.176246 0.614689,0.334535 0.959298,0.44249 0.06566,0.02057 0.14624,0.04768 0.179069,0.06025 0.08186,0.03135 0.115396,0.02992 0.126598,-0.0054 z m 3.935238,-0.592215 c 0.04059,-0.03268 0.100666,-0.07781 0.133495,-0.100299 0.140886,-0.09651 0.557067,-0.511517 0.641529,-0.639724 0.118297,-0.179567 0.111617,-0.160542 0.08394,-0.238998 -0.01961,-0.05558 -0.0774,-0.319425 -0.0774,-0.353368 0,-0.0037 0.01175,-0.0066 0.02612,-0.0066 0.01436,0 0.03019,-0.01062 0.03517,-0.02359 0.01399,-0.03645 -0.03664,-0.141188 -0.08289,-0.171493 -0.03838,-0.02515 -0.05292,-0.02447 -0.193283,0.009 -0.113805,0.0271 -0.247786,0.04014 -0.5355,0.0521 -0.211045,0.0088 -0.43744,0.02142 -0.503098,0.02809 l -0.119379,0.01214 v 0.133771 c 0,0.126086 0.0027,0.135961 0.04777,0.171878 0.03967,0.03165 0.05058,0.05798 0.06437,0.155354 0.01779,0.12562 0.06354,0.268515 0.223067,0.696711 0.116685,0.313203 0.126797,0.334527 0.158633,0.334527 0.01301,0 0.05687,-0.02673 0.09746,-0.05941 z m -5.699186,-0.352418 c 0.02822,-0.02953 0.05131,-0.06682 0.05131,-0.08287 0,-0.01605 0.02246,-0.07127 0.04991,-0.122708 0.02745,-0.05144 0.06282,-0.138858 0.0786,-0.19426 0.04781,-0.167855 0.09422,-0.300881 0.136281,-0.390652 0.06236,-0.133109 0.110397,-0.262539 0.110397,-0.297479 0,-0.02554 -0.01779,-0.03429 -0.08953,-0.04403 -0.09401,-0.01276 -0.217441,-0.06565 -0.217441,-0.09317 0,-0.0089 -0.06447,-0.03582 -0.143262,-0.05986 -0.08124,-0.02478 -0.170856,-0.06562 -0.206995,-0.09435 -0.07226,-0.05742 -0.106939,-0.06203 -0.180494,-0.024 -0.06017,0.03111 -0.07909,0.02073 -0.137519,-0.07547 -0.04737,-0.078 -0.06069,-0.08703 -0.128799,-0.08736 -0.04657,-1.95e-4 -0.06233,0.01108 -0.1007,0.07222 -0.02502,0.03986 -0.08544,0.118527 -0.13428,0.174805 -0.110614,0.127474 -0.122177,0.149802 -0.142303,0.274771 -0.02562,0.1591 -0.0176,0.174789 0.177405,0.34674 0.09702,0.08555 0.180875,0.168728 0.186353,0.184844 0.0055,0.01611 0.06923,0.07372 0.141674,0.128017 0.186557,0.139822 0.352395,0.286549 0.35934,0.317933 0.0081,0.03666 0.08919,0.120557 0.1165,0.120557 0.01223,0 0.04533,-0.02416 0.07355,-0.05369 z m 7.120491,-1.099667 c 0.0997,-0.0997 0.174795,-0.187745 0.166882,-0.195659 -0.01952,-0.01952 -0.473908,0.05856 -0.508669,0.08741 -0.0205,0.01702 -0.02491,0.03879 -0.01696,0.08378 0.01851,0.104778 0.02504,0.114871 0.09457,0.146226 0.03731,0.01682 0.06783,0.0371 0.06783,0.04505 0,0.008 0.0034,0.01447 0.0075,0.01447 0.0041,0 0.08911,-0.08157 0.188806,-0.18127 z m -8.71491,-2.223378 c 0.0058,-0.0094 -0.0019,-0.01705 -0.01705,-0.01705 -0.01518,0 -0.02285,0.0077 -0.01705,0.01705 0.0058,0.0094 0.01347,0.01705 0.01705,0.01705 0.0036,0 0.01126,-0.0077 0.01705,-0.01705 z m 5.33682,1.049489 c -0.04685,-0.0715 -0.04997,-0.164151 -0.0078,-0.231347 0.106367,-0.169461 0.177544,-0.291976 0.227614,-0.391784 0.03059,-0.06097 0.0756,-0.145388 0.100028,-0.187598 0.02443,-0.04221 0.05009,-0.09593 0.05703,-0.11938 0.01961,-0.06625 0.19716,-0.355121 0.414055,-0.673641 0.477515,-0.701252 0.60012,-0.885867 0.60012,-0.903638 0,-0.02001 -0.181476,-0.171226 -0.460799,-0.383954 -0.185324,-0.141139 -0.54104,-0.349899 -0.654283,-0.38398 -0.06453,-0.01942 -0.08127,-0.01809 -0.150757,0.01199 -0.07419,0.03211 -0.08042,0.03236 -0.122441,0.0048 -0.0353,-0.02313 -0.04427,-0.04267 -0.04427,-0.09641 0,-0.05494 -0.01104,-0.07781 -0.05969,-0.123695 -0.09544,-0.09001 -0.07712,-0.183441 0.03644,-0.185831 0.09212,-0.0019 0.194447,0.04908 0.246196,0.122748 0.03743,0.05328 0.0766,0.07577 0.266659,0.153105 0.122533,0.04986 0.257721,0.114982 0.300417,0.144722 0.126597,0.08818 0.453293,0.325851 0.599899,0.436425 0.07504,0.0566 0.145793,0.10308 0.157232,0.103297 0.02628,5.21e-4 0.152477,-0.187223 0.303561,-0.451541 0.216022,-0.377928 0.215192,-0.375869 0.211295,-0.523909 -0.0039,-0.14763 0.01518,-0.18963 0.07885,-0.173651 0.02902,0.0073 0.04446,1.95e-4 0.05909,-0.02716 0.01907,-0.03563 0.02107,-0.03588 0.0533,-0.0067 0.03226,0.0292 0.03384,0.02894 0.04327,-0.0071 0.01133,-0.04334 0.05328,-0.04982 0.06834,-0.01056 0.0057,0.01477 4.55e-4,0.05673 -0.01161,0.09324 -0.02888,0.0875 -0.0017,0.126206 0.07944,0.113042 0.03427,-0.0056 0.05794,-0.0013 0.06241,0.01112 0.0046,0.01292 0.02262,0.0059 0.05041,-0.01961 l 0.04322,-0.03969 0.01957,0.05929 c 0.02469,0.0748 0.01257,0.124844 -0.06889,0.284432 -0.03591,0.07035 -0.101026,0.204651 -0.14471,0.298448 -0.04368,0.0938 -0.119022,0.2281 -0.167419,0.298449 -0.0484,0.07035 -0.09735,0.147092 -0.108785,0.170541 -0.01143,0.02345 -0.04766,0.09125 -0.08049,0.150667 -0.03284,0.05942 -0.05959,0.116974 -0.05945,0.127906 2.61e-4,0.01996 0.08272,0.08823 0.514498,0.425969 0.29616,0.231655 0.308029,0.246094 0.28008,0.340703 -0.01419,0.04803 -0.03034,0.07108 -0.04878,0.06962 -0.01516,-0.0012 -0.08754,-0.04914 -0.160841,-0.106528 -0.22796,-0.178478 -0.432691,-0.326169 -0.452138,-0.326169 -0.02039,0 -0.04965,-0.02488 -0.170638,-0.145049 -0.04411,-0.04382 -0.08702,-0.07545 -0.09535,-0.0703 -0.03266,0.02019 -0.182367,0.235622 -0.327411,0.471164 -0.323502,0.52535 -0.509838,0.761066 -0.67614,0.855318 -0.0482,0.02732 -0.140291,0.09622 -0.20465,0.153106 -0.06436,0.05689 -0.137797,0.11423 -0.163195,0.127417 -0.03672,0.01907 -0.05506,0.05209 -0.08953,0.16123 -0.02385,0.07549 -0.04336,0.154531 -0.04336,0.175655 0,0.06302 -0.08074,0.205618 -0.134367,0.237293 -0.07161,0.0423 -0.132342,0.03771 -0.165224,-0.01247 z m 0.81081,-1.11885 c 0.106667,-0.128174 0.178489,-0.233384 0.429975,-0.629861 0.110069,-0.173526 0.238791,-0.368667 0.286051,-0.433646 0.07991,-0.109866 0.107374,-0.180305 0.07031,-0.180305 -0.02266,0 -0.08556,0.08507 -0.359389,0.486045 -0.134514,0.196975 -0.28935,0.417161 -0.344081,0.489301 -0.05473,0.07214 -0.09951,0.138101 -0.09951,0.146581 0,0.0085 -0.01614,0.03003 -0.03588,0.04789 -0.05068,0.04586 -0.122358,0.173047 -0.109371,0.19406 0.018,0.02912 0.06959,-0.0091 0.161895,-0.12006 z m 0.976237,-1.444199 c 0.09045,-0.09591 0.360084,-0.528204 0.45802,-0.734342 0.06366,-0.133988 0.07598,-0.193209 0.05022,-0.241341 -0.01947,-0.03638 -0.02124,-0.0366 -0.05404,-0.0069 -0.01865,0.01688 -0.07562,0.115367 -0.126596,0.218855 -0.103662,0.210458 -0.244517,0.470738 -0.273864,0.506059 -0.03195,0.03845 -0.140162,0.28443 -0.129724,0.294868 0.01727,0.01727 0.03094,0.01057 0.07599,-0.03719 z m -6.149577,2.344413 c -0.02805,-0.02051 -0.02893,-0.03754 -0.01159,-0.223812 0.01149,-0.123487 0.04503,-0.303993 0.08656,-0.465806 0.03729,-0.145303 0.0678,-0.282899 0.0678,-0.305768 0,-0.02287 -0.02983,-0.08154 -0.0663,-0.130384 -0.09708,-0.130036 -0.165336,-0.259545 -0.217797,-0.41324 -0.04098,-0.120071 -0.04676,-0.164028 -0.04927,-0.374784 l -0.0028,-0.238759 -0.127922,-0.26434 c -0.125076,-0.258459 -0.23808,-0.515689 -0.260464,-0.592891 -0.0074,-0.02547 0.0013,-0.05888 0.02553,-0.09806 0.03019,-0.04885 0.04696,-0.05943 0.09421,-0.05943 0.05554,0 0.05982,0.005 0.127092,0.14855 0.03829,0.0817 0.07425,0.16804 0.07991,0.19186 0.0057,0.02382 0.01884,0.0539 0.02927,0.06685 0.01043,0.01295 0.05823,0.101205 0.106217,0.196123 0.08109,0.160401 0.09132,0.173204 0.14496,0.181428 0.03174,0.0049 0.09225,0.0026 0.134454,-0.005 0.238324,-0.04301 0.271643,-0.03878 0.442357,0.05618 0.06661,0.03705 0.103377,0.02177 0.103377,-0.04297 0,-0.02115 0.01151,-0.04801 0.02558,-0.05969 0.01407,-0.01168 0.02558,-0.03061 0.02558,-0.04208 0,-0.01147 0.01641,-0.03547 0.03646,-0.05334 0.02005,-0.01787 0.04718,-0.05551 0.06027,-0.08365 0.01309,-0.02814 0.06384,-0.117431 0.112762,-0.198425 0.10434,-0.172734 0.327972,-0.396384 0.354477,-0.354506 0.0084,0.01334 0.01547,0.09849 0.01561,0.189232 2.93e-4,0.182677 0.0041,0.175841 -0.153226,0.275544 -0.04649,0.02946 -0.08173,0.08192 -0.159308,0.237135 -0.110133,0.220344 -0.136406,0.334284 -0.08045,0.348915 0.01801,0.0047 0.03707,0.01981 0.04234,0.03355 0.0053,0.01374 0.01731,0.02021 0.02676,0.01437 0.0094,-0.0058 0.01718,0.0052 0.01718,0.0245 0,0.01931 0.0077,0.03511 0.01705,0.03511 0.0094,0 0.01705,0.0087 0.01705,0.01944 0,0.01069 0.01276,0.02877 0.02835,0.04017 0.0302,0.02208 0.01953,0.08735 -0.01118,0.06837 -0.0094,-0.0058 -0.01717,0.0012 -0.01717,0.01555 0,0.02024 0.01214,0.02373 0.05361,0.01544 l 0.05361,-0.01072 -0.03911,0.05289 -0.03911,0.05289 0.05371,0.06118 c 0.05587,0.06364 0.07496,0.115905 0.02813,0.07704 -0.02121,-0.0176 -0.02558,-0.0157 -0.02558,0.01117 0,0.01782 -0.0127,0.05054 -0.02823,0.07271 -0.0323,0.04611 -0.05965,0.163443 -0.07989,0.342625 -0.0032,0.02822 -0.0288,0.08002 -0.05692,0.115116 -0.05487,0.06847 -0.09077,0.129104 -0.09077,0.153292 0,0.02493 0.134696,0.241489 0.258368,0.415384 0.127613,0.17944 0.167987,0.260582 0.167987,0.337618 0,0.03705 -0.01,0.05373 -0.03737,0.06242 -0.04197,0.01332 -0.09209,-0.03564 -0.167284,-0.163419 -0.02345,-0.03985 -0.101533,-0.132887 -0.173518,-0.206753 -0.07199,-0.07387 -0.146332,-0.159297 -0.165214,-0.18985 -0.01888,-0.03055 -0.05334,-0.07341 -0.07658,-0.09524 l -0.04225,-0.03969 -0.02899,0.04425 c -0.01641,0.02505 -0.04499,0.04425 -0.06587,0.04425 -0.02028,0 -0.05336,0.01154 -0.0735,0.02565 -0.02844,0.01992 -0.04717,0.02164 -0.08387,0.0077 -0.08647,-0.03288 -0.174576,0.06692 -0.222889,0.252481 -0.01402,0.05385 -0.03332,0.107408 -0.04289,0.119016 -0.0096,0.01161 -0.02762,0.07997 -0.04011,0.151927 -0.0259,0.149154 -0.05171,0.189419 -0.09917,0.154717 z m 0.271542,-2.085805 c -0.03537,-0.02586 -0.02108,-0.05822 0.02571,-0.05822 0.03773,0 0.04247,-0.01792 0.01264,-0.04775 -0.02513,-0.02513 -0.106655,-0.02665 -0.151198,-0.0028 -0.0372,0.01991 -0.04393,0.07557 -0.01167,0.09646 0.07263,0.04701 0.187496,0.05838 0.124519,0.01233 z m 0.647184,0.01 c 0.0058,-0.0094 0.0024,-0.01705 -0.0075,-0.01705 -0.0099,0 -0.01806,0.0077 -0.01806,0.01705 0,0.0094 0.0034,0.01705 0.0075,0.01705 0.0041,0 0.01226,-0.0077 0.01806,-0.01705 z m 8.609257,1.01769 c -0.148834,-0.0549 -0.171363,-0.12803 -0.150442,-0.488321 0.01597,-0.27496 0.0159,-0.264536 0.0032,-0.512315 -0.0055,-0.107867 -0.01683,-0.219146 -0.0251,-0.247285 -0.0097,-0.03298 -0.0085,-0.06185 0.0034,-0.08122 0.02369,-0.03853 -0.01891,-0.120423 -0.06732,-0.129425 -0.04765,-0.0089 -0.143979,-0.109407 -0.159145,-0.166115 -0.0071,-0.0265 -0.03458,-0.05999 -0.06147,-0.0749 -0.07381,-0.04091 -0.09038,-0.07688 -0.05396,-0.117129 0.01671,-0.01846 0.049,-0.03825 0.07176,-0.04396 0.0368,-0.0092 0.04138,-0.01969 0.04138,-0.09437 0,-0.06745 0.0075,-0.0892 0.0379,-0.110527 0.03116,-0.02182 0.03268,-0.02655 0.0085,-0.02655 -0.03254,0 -0.03911,-0.03461 -0.01176,-0.06195 0.02258,-0.02258 0.0031,-0.07448 -0.02797,-0.07448 -0.02688,0 -0.03091,-0.0194 -0.0091,-0.04349 0.02023,-0.02229 -0.02083,-0.246209 -0.06154,-0.335635 -0.01823,-0.04005 -0.04198,-0.118713 -0.05277,-0.174813 -0.01908,-0.09916 -0.04342,-0.158788 -0.168147,-0.411772 -0.06386,-0.129518 -0.06433,-0.164333 -0.0033,-0.242472 0.03076,-0.03939 0.03029,-0.0417 -0.03219,-0.15909 -0.0656,-0.123255 -0.119734,-0.191924 -0.188728,-0.239408 -0.03155,-0.02171 -0.04267,-0.04971 -0.05235,-0.131835 -0.0086,-0.07288 -0.0062,-0.109309 0.0079,-0.121018 0.0111,-0.0092 0.02884,-0.05983 0.03941,-0.112482 0.0234,-0.116493 0.08256,-0.239645 0.119923,-0.249615 0.02636,-0.007 0.09572,-0.206832 0.08455,-0.243553 -0.0027,-0.0089 0.0089,-0.03686 0.02576,-0.06212 0.04098,-0.06131 0.03095,-0.120025 -0.0231,-0.135202 -0.0419,-0.01176 -0.042,-0.01217 -0.0054,-0.0237 0.02363,-0.0074 0.03367,-0.02091 0.02753,-0.0369 -0.02227,-0.05803 -0.209881,0.04065 -0.432639,0.227547 -0.08195,0.06876 -0.159925,0.125013 -0.173277,0.125013 -0.01335,0 -0.0595,-0.02333 -0.102541,-0.05184 -0.05844,-0.03871 -0.08948,-0.04903 -0.122525,-0.04073 -0.02434,0.0061 -0.05375,0.0033 -0.06536,-0.0063 -0.0116,-0.0096 -0.09702,-0.0564 -0.18981,-0.104035 -0.09279,-0.04764 -0.210089,-0.118535 -0.260658,-0.157549 -0.209994,-0.162009 -0.581319,-0.361316 -0.917909,-0.492684 -0.434237,-0.169478 -1.247142,-0.34324 -1.803481,-0.385503 -0.158149,-0.01201 -0.184475,7.84e-4 -0.106588,0.05182 0.08529,0.05589 0.03387,0.163595 -0.07809,0.163569 -0.03209,-7e-6 -0.10823,-0.02378 -0.169199,-0.05283 -0.103795,-0.04945 -0.255494,-0.07254 -0.284699,-0.04334 -0.02153,0.02152 0.03745,0.06361 0.124683,0.08897 0.100649,0.02926 0.29645,0.15127 0.29645,0.184728 0,0.03432 -0.283282,0.01913 -0.562789,-0.03017 -0.136008,-0.02399 -0.404611,-0.0563 -0.596897,-0.0718 -0.442045,-0.03563 -0.760484,-0.02601 -1.074414,0.03247 -0.126627,0.02359 -0.272441,0.04819 -0.324029,0.05467 -0.05159,0.0065 -0.107022,0.01873 -0.123184,0.02723 -0.01616,0.0085 -0.06988,0.02294 -0.11938,0.03209 -0.370441,0.06851 -1.226916,0.342822 -1.523068,0.487806 -0.122225,0.05984 -0.23734,0.108868 -0.255813,0.108959 -0.05077,2.54e-4 -0.209948,0.07919 -0.275186,0.136475 -0.07291,0.06402 -0.168109,0.112903 -0.249649,0.1282 -0.03482,0.0065 -0.08121,0.02596 -0.103091,0.04317 -0.04165,0.03276 -0.09174,0.02927 -0.156044,-0.01089 -0.01876,-0.01171 -0.102668,-0.04527 -0.186463,-0.07456 -0.132788,-0.04642 -0.165094,-0.06612 -0.251549,-0.153388 -0.05456,-0.05507 -0.09919,-0.108777 -0.09919,-0.119354 0,-0.01058 -0.01109,-0.03623 -0.02463,-0.057 -0.01355,-0.02078 -0.04508,-0.103005 -0.07006,-0.182733 -0.02498,-0.07973 -0.06443,-0.193929 -0.08765,-0.253779 -0.02323,-0.05985 -0.04632,-0.134015 -0.05131,-0.16481 -0.008,-0.04934 -0.0029,-0.05921 0.04322,-0.08304 0.06564,-0.03394 0.06527,-0.03398 0.076,0.0071 0.0049,0.01876 0.01731,0.03411 0.02757,0.03411 0.02333,0 0.02352,-0.01907 8.2e-4,-0.07878 -0.01428,-0.03757 -0.01259,-0.04983 0.0085,-0.06165 0.01642,-0.0092 0.02636,-0.03871 0.02636,-0.07832 0,-0.09353 0.03893,-0.139381 0.118357,-0.139381 0.07364,0 0.08437,0.01877 0.08776,0.153488 0.0029,0.116536 0.02062,0.163044 0.05936,0.15613 0.01814,-0.0032 0.02785,-6.65e-4 0.02158,0.0057 -0.0063,0.0064 -0.0035,0.03436 0.0062,0.06217 0.01712,0.04911 0.01861,0.04969 0.05131,0.02009 0.0324,-0.02932 0.0346,-0.02923 0.05772,0.0024 0.03746,0.05123 0.0286,0.11682 -0.02681,0.198598 -0.0795,0.117327 -0.05913,0.277314 0.05257,0.412823 0.04479,0.05434 0.06172,0.06298 0.123167,0.0629 0.143652,-2.02e-4 0.398344,-0.04912 0.478989,-0.092 0.04394,-0.02336 0.115988,-0.04738 0.160102,-0.05337 0.04411,-0.006 0.10323,-0.0209 0.131369,-0.03314 0.02814,-0.01223 0.07035,-0.02746 0.0938,-0.03384 0.02345,-0.0064 0.06566,-0.02238 0.0938,-0.03556 0.06185,-0.02897 0.277214,-0.114079 0.451936,-0.178608 0.07035,-0.02598 0.223837,-0.0854 0.341084,-0.132052 0.117248,-0.04665 0.266898,-0.102281 0.332557,-0.12363 0.06566,-0.02135 0.127054,-0.0446 0.136433,-0.05167 0.0094,-0.0071 0.07857,-0.02936 0.153763,-0.04954 0.166196,-0.04459 0.198652,-0.06182 0.16174,-0.08587 -0.01407,-0.0092 -0.03709,-0.01324 -0.05116,-0.0091 -0.07268,0.02162 -0.329854,0.05824 -0.344678,0.04908 -0.0094,-0.0058 -0.108007,-0.01576 -0.219086,-0.02208 -0.226153,-0.01287 -0.262944,-0.03004 -0.281997,-0.131602 -0.02564,-0.13668 0.115039,-0.205349 0.356765,-0.174145 0.100522,0.01298 0.232745,0.01271 0.464013,-9.17e-4 0.177887,-0.01049 0.522966,-0.02684 0.766841,-0.03635 0.49134,-0.01916 0.593626,-0.02821 0.579385,-0.05125 -0.01245,-0.02015 -0.326963,-0.11864 -0.378856,-0.11864 -0.02177,0 -0.044,-0.01151 -0.0494,-0.02558 -0.0054,-0.01407 -0.01932,-0.02558 -0.03093,-0.02558 -0.03655,0 -0.07963,-0.05933 -0.05844,-0.08051 0.0135,-0.0135 0.0087,-0.02396 -0.01729,-0.03789 -0.0774,-0.04142 -0.03362,-0.08625 0.08424,-0.08625 0.04877,0 0.07103,-0.009 0.08448,-0.03411 0.01004,-0.01876 0.02923,-0.03411 0.04264,-0.03411 0.01341,0 0.0326,0.01535 0.04264,0.03411 0.01041,0.01945 0.03571,0.03411 0.05887,0.03411 0.02424,0 0.05383,0.01814 0.07339,0.04499 0.02718,0.03732 0.07759,0.05774 0.295607,0.119786 0.322251,0.09171 0.486383,0.121599 0.514315,0.09367 0.02726,-0.02726 0.04697,-0.0246 0.04697,0.0063 0,0.02311 0.0059,0.02299 0.05225,-10e-4 0.07438,-0.03847 0.155046,-0.02683 0.181207,0.02614 0.01572,0.03184 0.03958,0.04556 0.09419,0.05416 0.10921,0.01721 0.42141,0.01475 0.380107,-0.003 -0.01876,-0.0081 -0.06097,-0.01531 -0.0938,-0.01612 -0.04506,-0.0011 -0.05342,-0.0055 -0.03411,-0.01799 0.02226,-0.01438 0.02197,-0.01656 -0.0022,-0.01679 -0.03547,-3.32e-4 -0.07389,-0.04456 -0.05099,-0.05871 0.0092,-0.0057 0.02152,-0.0025 0.02742,0.007 0.0059,0.0095 0.02369,0.01738 0.03955,0.01744 0.01586,5.8e-5 0.05127,0.0118 0.07868,0.02609 0.05025,0.0262 0.06229,0.02123 0.08419,-0.03473 0.0041,-0.01042 0.01547,-0.0088 0.02927,0.0043 0.02706,0.02553 0.0948,0.02817 0.109573,0.0043 0.0058,-0.0094 0.02352,-0.01645 0.03938,-0.01571 0.01776,8.29e-4 0.02065,0.0047 0.0075,0.0099 -0.03364,0.01357 -0.02485,0.03987 0.01332,0.03987 0.01906,0 0.03906,-0.01151 0.04446,-0.02558 0.01264,-0.03294 0.05733,-0.03335 0.05733,-5.34e-4 0,0.01526 0.01,0.02121 0.02558,0.01523 0.01407,-0.0054 0.02558,-0.0013 0.02558,0.0091 0,0.01038 0.01919,0.01888 0.04264,0.01888 0.02696,0 0.04264,-0.0096 0.04264,-0.02618 0,-0.01941 0.0077,-0.02221 0.02984,-0.01083 0.01642,0.0084 0.03944,0.01191 0.05116,0.0077 0.01172,-0.0042 0.02132,0.0016 0.02132,0.01292 0,0.01575 0.006,0.0156 0.02558,-6.67e-4 0.02125,-0.01764 0.02558,-0.0156 0.02558,0.01201 0,0.02883 0.01052,0.03265 0.07932,0.02877 0.04363,-0.0025 0.08537,-0.01426 0.09276,-0.02622 0.01058,-0.01712 0.02,-0.01596 0.04432,0.0054 0.01916,0.01686 0.08107,0.03173 0.163021,0.03915 0.08312,0.0075 0.136951,0.02056 0.145119,0.03516 0.0071,0.01276 0.05129,0.0272 0.0981,0.03209 0.113846,0.01188 0.377555,0.07179 0.451778,0.102629 0.03283,0.01364 0.07888,0.02953 0.102325,0.0353 0.02345,0.0058 0.07333,0.02249 0.110852,0.03714 0.124453,0.04859 0.135909,0.05262 0.213178,0.07496 0.09198,0.0266 0.250851,0.107562 0.298353,0.152044 0.04359,0.04082 0.116296,0.06841 0.180274,0.06841 0.06205,0 0.06671,-0.02461 0.0053,-0.02817 -0.02458,-0.0014 -0.06648,-0.01869 -0.0931,-0.03837 -0.02662,-0.01968 -0.06067,-0.03578 -0.07568,-0.03578 -0.015,0 -0.02258,-0.0076 -0.01683,-0.0169 0.0066,-0.0106 0.03394,-0.0067 0.07349,0.01038 0.03467,0.01501 0.07839,0.03148 0.09715,0.0366 0.01876,0.0051 0.07156,0.03883 0.117343,0.07489 0.04578,0.03606 0.09758,0.06557 0.115117,0.06557 0.03893,0 0.03941,-0.0068 0.0043,-0.06029 -0.03413,-0.0521 -0.02033,-0.05378 0.03642,-0.0044 0.02379,0.02068 0.03965,0.04698 0.03525,0.05844 -0.01242,0.03236 0.03615,0.06239 0.0822,0.05083 0.02308,-0.0058 0.06292,4.49e-4 0.08976,0.01407 0.08498,0.04312 0.224165,0.09486 0.255214,0.09486 0.02341,0 0.02555,0.0045 0.0096,0.02047 -0.02785,0.02785 -0.02572,0.04775 0.0051,0.04775 0.01407,0 0.02558,0.01151 0.02558,0.02558 0,0.01407 0.0077,0.02558 0.01705,0.02558 0.0094,0 0.01705,0.01068 0.01705,0.02373 0,0.01305 0.01919,0.02855 0.04264,0.03443 0.02714,0.0068 0.04264,0.02272 0.04264,0.04377 0,0.02116 0.02764,0.04926 0.07674,0.07804 0.04221,0.02474 0.07674,0.05082 0.07674,0.05797 0,0.0187 0.172346,0.188412 0.191336,0.188412 0.0088,0 0.09093,-0.0758 0.182609,-0.168445 0.117475,-0.118715 0.169903,-0.184526 0.17758,-0.222913 0.0086,-0.04309 0.01746,-0.05238 0.04233,-0.04449 0.03894,0.01236 0.09371,-0.04369 0.08531,-0.0873 -0.0046,-0.02373 0.01228,-0.03728 0.07099,-0.05706 0.04631,-0.01561 0.07504,-0.03501 0.07212,-0.04869 -0.0027,-0.01251 0.0049,-0.03456 0.01692,-0.04899 0.01893,-0.02281 0.01622,-0.02457 -0.02072,-0.01348 l -0.0425,0.01277 0.03818,-0.03949 c 0.02896,-0.02996 0.04296,-0.03472 0.05796,-0.01971 0.049,0.04899 0.241051,-0.141088 0.310503,-0.30731 0.01457,-0.03487 0.03567,-0.06341 0.04689,-0.06341 0.01122,0 0.03655,-0.01559 0.0563,-0.03464 0.09684,-0.09342 0.165965,-0.137716 0.226447,-0.145113 0.06543,-0.008 0.124959,-0.05733 0.124959,-0.103535 0,-0.03258 0.05496,-0.0297 0.117552,0.0062 0.05609,0.03213 0.08685,0.113657 0.05493,0.14558 -0.01339,0.01339 -0.02156,0.0036 -0.02931,-0.03514 -0.0098,-0.04895 -0.08326,-0.120611 -0.103199,-0.100669 -0.01273,0.01273 0.03403,0.07977 0.05564,0.07977 0.01313,0 0.01506,0.02019 0.0061,0.06395 -0.02494,0.12182 -0.07006,0.224101 -0.265195,0.60116 -0.05097,0.09849 -0.100695,0.209767 -0.110499,0.247286 -0.02083,0.07974 -0.130944,0.31463 -0.215252,0.459192 -0.03241,0.05558 -0.07054,0.135249 -0.08473,0.177043 -0.01419,0.04179 -0.05218,0.111435 -0.08443,0.154759 -0.03225,0.04332 -0.07189,0.101377 -0.0881,0.129008 -0.01621,0.02763 -0.05758,0.07626 -0.09194,0.108057 -0.08813,0.08157 -0.09422,0.124034 -0.03308,0.230814 0.05568,0.09725 0.26787,0.352748 0.292951,0.352748 0.0087,0 0.01578,-0.01151 0.01578,-0.02558 0,-0.01407 0.0083,-0.02558 0.01855,-0.02558 0.01227,0 0.01455,0.02367 0.0067,0.06993 -0.01108,0.06559 -0.0096,0.06923 0.02408,0.05854 0.02959,-0.0094 0.0359,-0.0043 0.0359,0.02898 0,0.02221 0.0084,0.04876 0.01863,0.05901 0.01348,0.01348 0.01321,0.02877 -9.64e-4,0.05526 -0.0159,0.0297 -0.01338,0.04698 0.01328,0.09136 0.01809,0.03011 0.03785,0.07585 0.04393,0.101639 0.0094,0.04007 0.01969,0.0469 0.07041,0.0469 0.03265,0 0.05936,0.0077 0.05936,0.01705 0,0.0094 -0.01057,0.01705 -0.02349,0.01705 -0.04081,0 -0.05941,0.0387 -0.04097,0.08527 0.01585,0.04003 0.01765,0.04057 0.02947,0.0089 0.01221,-0.03272 0.01319,-0.03259 0.03292,0.0043 0.01309,0.02446 0.01405,0.03799 0.0027,0.03799 -0.02229,0 -0.02332,0.04636 -0.0012,0.05401 0.0091,0.0031 0.02829,0.08466 0.04276,0.181182 0.02456,0.163909 0.05241,0.291606 0.09934,0.455507 0.01074,0.03752 0.01793,0.08165 0.01596,0.09806 -0.002,0.01642 0.004,0.02985 0.01328,0.02985 0.0093,0 0.01685,0.01535 0.01685,0.03411 0,0.04588 0.02769,0.04344 0.03997,-0.0035 0.01698,-0.06493 0.03375,-0.01827 0.0396,0.110127 0.0031,0.06799 0.0094,0.158159 0.01393,0.200368 0.0046,0.04221 0.01445,0.137037 0.02196,0.21073 0.0094,0.09177 0.02237,0.140355 0.0413,0.154199 0.01859,0.0136 0.02284,0.0288 0.01296,0.04646 -0.01406,0.02512 -0.01113,0.176569 0.0053,0.274686 0.01066,0.06359 0.04549,0.10358 0.07145,0.08203 0.01408,-0.01169 0.03806,-0.0016 0.07874,0.03321 0.03217,0.0275 0.06641,0.05032 0.07609,0.0507 0.0097,3.91e-4 0.0282,0.0366 0.04115,0.08048 0.02979,0.100893 0.01125,0.199634 -0.08592,0.45748 -0.08034,0.213202 -0.09896,0.246589 -0.192576,0.345283 -0.07438,0.07842 -0.121364,0.08875 -0.226771,0.04986 z m -0.508517,-5.110695 c 0.0058,-0.0094 0.0024,-0.01705 -0.0075,-0.01705 -0.0099,0 -0.01806,0.0077 -0.01806,0.01705 0,0.0094 0.0034,0.01705 0.0075,0.01705 0.0041,0 0.01226,-0.0077 0.01806,-0.01705 z m -1.458133,-0.255814 c 0,-0.0094 -0.0158,-0.01705 -0.03512,-0.01705 -0.01931,0 -0.03037,0.0077 -0.02457,0.01705 0.0058,0.0094 0.0216,0.01705 0.03511,0.01705 0.01352,0 0.02458,-0.0077 0.02458,-0.01705 z m -9.047248,-0.187596 c -0.0058,-0.0094 -0.0216,-0.01705 -0.03512,-0.01705 -0.01352,0 -0.02457,0.0077 -0.02457,0.01705 0,0.0094 0.0158,0.01705 0.03511,0.01705 0.01931,0 0.03037,-0.0077 0.02458,-0.01705 z m 5.994548,-0.287184 c 0,-0.01798 -0.07867,-0.05481 -0.09092,-0.04256 -0.005,0.005 -0.0049,0.01981 1.3e-4,0.03297 0.0097,0.02536 0.0908,0.03393 0.0908,0.0096 z m -0.840275,-0.01304 c -0.0057,-0.0057 -0.02038,-0.0063 -0.03269,-0.0013 -0.0136,0.0054 -0.0096,0.0095 0.0103,0.0103 0.01798,7.4e-4 0.02805,-0.0033 0.02238,-0.009 z m 5.615448,-0.0238 c 0,-0.0094 -0.0034,-0.01705 -0.0075,-0.01705 -0.0041,0 -0.01226,0.0077 -0.01806,0.01705 -0.0058,0.0094 -0.0024,0.01705 0.0075,0.01705 0.0099,0 0.01806,-0.0077 0.01806,-0.01705 z m -4.033316,-0.136434 c 0.0062,-0.01007 -0.01256,-0.01695 -0.04589,-0.01679 -0.04271,1.95e-4 -0.05021,0.0043 -0.03085,0.01679 0.03315,0.02143 0.0635,0.02143 0.07674,0 z m 0.238759,0 c 0.006,-0.0097 -0.0084,-0.01705 -0.0331,-0.01705 -0.024,0 -0.04364,0.0077 -0.04364,0.01705 0,0.0094 0.0149,0.01705 0.0331,0.01705 0.01821,0 0.03785,-0.0077 0.04364,-0.01705 z m -0.42511,-0.043 c -0.03505,-0.02652 -0.05463,-0.0223 -0.03605,0.0078 0.0062,0.01 0.02422,0.01794 0.04008,0.01765 0.02532,-4.75e-4 0.02483,-0.0036 -0.004,-0.0254 z m -0.112097,-0.0082 c 0,-0.0094 -0.04029,-0.01694 -0.08953,-0.01679 -0.0641,1.89e-4 -0.08227,0.005 -0.06395,0.01679 0.03375,0.02181 0.153488,0.02181 0.153488,0 z m -0.20465,-0.01705 c 0,-0.0094 -0.01535,-0.01705 -0.03411,-0.01705 -0.01876,0 -0.03411,0.0077 -0.03411,0.01705 0,0.0094 0.01535,0.01705 0.03411,0.01705 0.01876,0 0.03411,-0.0077 0.03411,-0.01705 z m 0.511626,0.0095 c 0,-0.0041 -0.0077,-0.01226 -0.01705,-0.01806 -0.0094,-0.0058 -0.01705,-0.0024 -0.01705,0.0075 0,0.0099 0.0077,0.01806 0.01705,0.01806 0.0094,0 0.01705,-0.0034 0.01705,-0.0075 z m -0.663093,-0.03747 c -0.05888,-0.02568 -0.104346,-0.02118 -0.104346,0.01035 0,0.0098 0.03583,0.01697 0.08101,0.0162 l 0.08101,-0.0014 z m -3.464022,5.753794 c 0,-0.01407 0.01151,-0.03514 0.02558,-0.04681 0.0208,-0.01727 0.02558,-0.01646 0.02558,0.0044 0,0.01407 -0.01151,0.03514 -0.02558,0.04681 -0.0208,0.01727 -0.02558,0.01646 -0.02558,-0.0043 z m 0.03655,-0.352202 c -0.01716,-0.01066 -0.01797,-0.01757 -0.0031,-0.02674 0.0234,-0.01446 0.04097,-0.0017 0.03231,0.02354 -0.0035,0.01032 -0.01559,0.01164 -0.02918,0.0032 z m 6.908834,-3.054455 c -0.08673,-0.04455 -0.205679,-0.111736 -0.26434,-0.149292 -0.214757,-0.137492 -0.344099,-0.208676 -0.37916,-0.208676 -0.01975,0 -0.104648,-0.03964 -0.188673,-0.0881 -0.08403,-0.04845 -0.189501,-0.102249 -0.234392,-0.119543 -0.04489,-0.01729 -0.110122,-0.05022 -0.14496,-0.07317 -0.03484,-0.02295 -0.105551,-0.05322 -0.157139,-0.06726 -0.05159,-0.01405 -0.127253,-0.03766 -0.168142,-0.05247 -0.04089,-0.01481 -0.08885,-0.02232 -0.106589,-0.01669 -0.01864,0.0059 -0.03224,0.0021 -0.03224,-0.009 0,-0.02775 -0.209395,-0.118665 -0.332756,-0.144476 -0.05783,-0.0121 -0.12123,-0.03061 -0.140887,-0.04113 -0.01966,-0.01052 -0.06886,-0.01946 -0.109341,-0.01988 -0.04048,-4.1e-4 -0.1043,-0.01246 -0.141819,-0.02678 -0.03752,-0.01432 -0.130445,-0.03241 -0.206501,-0.04021 -0.09051,-0.0093 -0.178885,-0.03177 -0.255813,-0.0651 -0.08824,-0.03823 -0.18393,-0.06016 -0.383962,-0.08798 -0.286766,-0.03989 -0.459466,-0.04074 -0.918833,-0.0045 -0.136007,0.01073 -0.472,0.02771 -0.74665,0.03774 -0.286289,0.01046 -0.548257,0.02841 -0.61395,0.04208 -0.06302,0.01311 -0.229703,0.04436 -0.3704,0.06943 -0.140698,0.02508 -0.290348,0.05599 -0.332557,0.06869 -0.09676,0.02912 -0.385156,0.07962 -0.448855,0.0786 -0.02644,-4.24e-4 -0.05771,-0.0088 -0.06948,-0.01853 -0.01326,-0.01101 -0.02745,-0.0117 -0.03733,-0.0018 -0.0094,0.0094 -0.02598,0.0097 -0.04028,8.94e-4 -0.02068,-0.01278 -0.02082,-0.01929 -9.54e-4,-0.04322 0.019,-0.02289 0.01924,-0.03074 0.0013,-0.04182 -0.01563,-0.0097 -0.01862,-0.0341 -0.01024,-0.08369 0.0089,-0.05297 0.02734,-0.08232 0.07543,-0.12041 0.104296,-0.0826 0.149109,-0.09744 0.187994,-0.06225 0.03168,0.02867 0.03578,0.02716 0.108566,-0.03993 0.05438,-0.05012 0.0904,-0.06972 0.128154,-0.06972 0.05844,0 0.08865,-0.03007 0.05259,-0.05236 -0.01732,-0.0107 -0.01839,-0.01941 -0.0042,-0.03364 0.01423,-0.01423 0.0264,-0.0089 0.04702,0.02052 0.01622,0.02316 0.0206,0.04213 0.0105,0.04549 -0.03131,0.01044 -0.01808,0.03704 0.01842,0.03704 0.04132,0 0.134314,-0.04829 0.162622,-0.08444 0.01161,-0.01482 0.04583,-0.02393 0.08532,-0.0227 0.04279,0.0013 0.0779,-0.009 0.100041,-0.02954 0.06408,-0.05935 0.134892,-0.07388 0.411884,-0.08453 0.17373,-0.0067 0.284523,-0.01812 0.300018,-0.03098 0.01351,-0.01121 0.02893,-0.01603 0.03426,-0.01069 0.0053,0.0053 0.07663,0.0158 0.158436,0.02325 0.113927,0.01038 0.15919,0.0081 0.193386,-0.0097 0.0577,-0.03011 0.0934,-0.02993 0.08176,3.97e-4 -0.01529,0.03986 0.120379,0.04425 0.169645,0.0055 0.02211,-0.01739 0.04893,-0.02622 0.05961,-0.01963 0.0134,0.0083 0.01081,0.01681 -0.0084,0.02754 -0.08179,0.04577 -0.01002,0.06246 0.313312,0.07287 0.139167,0.0045 0.26396,0.01786 0.315503,0.03382 0.0469,0.01453 0.192712,0.04204 0.324029,0.06114 0.503885,0.07328 1.028131,0.155644 1.142631,0.179513 0.435738,0.09083 0.630822,0.139946 0.920927,0.231841 0.241348,0.07645 0.421381,0.147016 0.648059,0.254016 0.03752,0.01771 0.08932,0.03995 0.115116,0.04942 0.02579,0.0095 0.0469,0.02508 0.0469,0.03469 0,0.0096 0.01343,0.0176 0.02984,0.01776 0.02811,2.61e-4 0.06437,0.01994 0.215181,0.116762 0.03452,0.02216 0.08211,0.0733 0.105752,0.113641 0.04715,0.08046 0.115049,0.145156 0.335803,0.319965 0.154757,0.122549 0.212846,0.208459 0.142689,0.211031 -0.01994,7.29e-4 -0.107207,-0.03513 -0.193935,-0.07968 z m -9.42677,0.03751 c 0.0094,-0.009 0.03523,-0.02195 0.05744,-0.02868 0.02999,-0.0091 0.03843,-0.0063 0.03279,0.01087 -0.0042,0.01271 -0.03003,0.02562 -0.05744,0.02868 -0.03232,0.0036 -0.04385,-1.95e-4 -0.03279,-0.01087 z m -0.07482,-0.06878 c -0.04039,-0.05678 -0.105826,-0.265062 -0.08564,-0.272602 0.0082,-0.0031 0.0037,-0.02754 -0.01021,-0.05435 -0.01386,-0.02681 -0.02107,-0.05953 -0.01601,-0.07271 0.0051,-0.01318 -0.0027,-0.08082 -0.01716,-0.150304 -0.03481,-0.166861 -0.03515,-0.288355 -8.04e-4,-0.288355 0.01592,0 0.02558,-0.01611 0.02558,-0.04263 0,-0.04961 0.01343,-0.05411 0.04257,-0.01426 0.01141,0.01561 0.05419,0.03287 0.09506,0.03837 0.08201,0.01103 0.0713,-0.0098 0.118968,0.231703 0.0093,0.0469 0.03075,0.155278 0.04776,0.240842 0.02426,0.122017 0.02656,0.161559 0.01063,0.183333 -0.01116,0.01527 -0.02771,0.02776 -0.03676,0.02776 -0.0091,0 -0.03449,0.01919 -0.05652,0.04264 -0.02203,0.02345 -0.05087,0.04263 -0.06408,0.04263 -0.01322,0 -0.0207,0.0096 -0.01662,0.02132 0.0041,0.01172 0.02256,0.02085 0.04107,0.02028 0.02578,-7.95e-4 0.03197,0.0078 0.02643,0.03683 -0.01107,0.05793 -0.06623,0.06296 -0.104252,0.0095 z m 2.192385,-0.859707 c -0.02199,-0.01608 -0.02651,-0.03513 -0.01818,-0.07674 0.01322,-0.06609 0.03073,-0.0697 0.06732,-0.01386 0.02115,0.03228 0.023,0.04932 0.0083,0.07674 -0.02224,0.04156 -0.02024,0.04107 -0.05746,0.01386 z m 0.111212,-0.04614 c -0.02052,-0.02776 -0.03731,-0.05846 -0.03731,-0.06822 0,-0.02491 0.02968,-0.02218 0.03888,0.0036 0.0044,0.0124 0.01394,0.01499 0.02274,0.0062 0.0088,-0.0088 0.0062,-0.01831 -0.0062,-0.02274 -0.02445,-0.0087 -0.02943,-0.09004 -0.0055,-0.09004 0.0087,0 0.01913,0.01343 0.0232,0.02985 0.0055,0.02234 0.01258,0.01625 0.02802,-0.02421 0.02377,-0.06229 0.07937,-0.09675 0.06453,-0.03999 -0.0059,0.02242 -6.52e-4,0.03436 0.015,0.03436 0.03708,0 0.02964,0.03348 -0.03032,0.136434 -0.0082,0.01407 -0.01941,0.03901 -0.02492,0.05543 -0.01471,0.04381 -0.04586,0.03652 -0.08811,-0.02063 z m -2.25436,0.01636 c 0,-0.0094 0.0077,-0.01705 0.01705,-0.01705 0.0094,0 0.01705,0.0077 0.01705,0.01705 0,0.0094 -0.0077,0.01705 -0.01705,0.01705 -0.0094,0 -0.01705,-0.0077 -0.01705,-0.01705 z m 2.457157,-0.02395 c -0.02464,-0.02969 -0.01138,-0.09296 0.04415,-0.210545 0.0417,-0.0883 0.06174,-0.105924 0.08241,-0.07248 0.0058,0.0094 0.0034,0.01705 -0.0054,0.01705 -0.0088,0 -0.013,0.04243 -0.0094,0.09428 0.005,0.07261 6.38e-4,0.09655 -0.01917,0.10415 -0.01415,0.0054 -0.02572,0.02823 -0.02572,0.05068 0,0.04536 -0.03573,0.05437 -0.06686,0.01686 z m -0.291275,-0.12101 c 0.01168,-0.01407 0.02773,-0.02558 0.03566,-0.02558 0.0079,0 0.01001,0.01151 0.0046,0.02558 -0.0054,0.01407 -0.02145,0.02558 -0.03566,0.02558 -0.02104,0 -0.0219,-0.0048 -0.0046,-0.02558 z m 0.426355,-0.244191 c 0,-0.02061 0.03235,-0.04464 0.04418,-0.03281 0.0043,0.0043 -0.0039,0.01751 -0.01819,0.02938 -0.01621,0.01345 -0.02599,0.01474 -0.02599,0.0034 z m 5.37207,-0.770534 c -0.02205,-0.01425 -0.0216,-0.01657 0.0033,-0.01679 0.01586,-1.43e-4 0.03358,0.0074 0.03938,0.01679 0.01334,0.02158 -0.0092,0.02158 -0.04264,0 z m -2.5387,-0.341651 c -0.03846,-0.03204 -0.0387,-0.03354 -0.0054,-0.03354 0.04972,0 0.122379,0.03012 0.122379,0.05074 0,0.02931 -0.07428,0.01839 -0.117005,-0.0172 z m 0.48367,-0.0847 c 0.0058,-0.0094 0.01392,-0.01705 0.01806,-0.01705 0.0041,0 0.0075,0.0077 0.0075,0.01705 0,0.0094 -0.0081,0.01705 -0.01806,0.01705 -0.0099,0 -0.01332,-0.0077 -0.0075,-0.01705 z"
       id="path125" /></g></svg>
